<?xml version="1.0" encoding="UTF-8" standalone="no"?>
<svg
   xmlns:dc="http://purl.org/dc/elements/1.1/"
   xmlns:cc="http://creativecommons.org/ns#"
   xmlns:rdf="http://www.w3.org/1999/02/22-rdf-syntax-ns#"
   xmlns:svg="http://www.w3.org/2000/svg"
   xmlns="http://www.w3.org/2000/svg"
   viewBox="0 0 744.09998 1052.3625"
   height="106"
   width="282"
   xml:space="preserve"
   version="1.1"
   id="svg2"
   style="fill:#ffffff;color:#ffffff;"><defs
     id="defs6" /><g
     transform="matrix(12.4136,0,0,-12.394757,-4878.1052,7198.6614)"
     id="g10"><g
       transform="translate(0.21213203,0.21213205)"
       id="g64"><g
         clip-path="url(#clipPath68)"
         id="g66"><g
           transform="translate(393.3749,522.2058)"
           id="g128"><path
             id="path130"
             style="fill-opacity:0.58039216;fill-rule:nonzero;stroke:none"
             d="m 0,0 -20.35,10.899 c -0.341,0.183 -0.755,0.181 -1.091,-0.004 l -19.948,-10.874 -20.518,11.963 0,20.89 19.496,-11.076 c 0.357,-0.199 0.788,-0.197 1.141,0.002 l 20.949,12.05 c 0.361,0.201 0.582,0.589 0.578,1.005 -0.008,0.421 -0.238,0.798 -0.603,0.995 l -41.303,22.375 c -0.349,0.191 -0.771,0.183 -1.116,-0.01 L -82.844,46.737 c -0.353,-0.205 -0.574,-0.585 -0.574,-0.995 l 0,-46.749 c 0,-0.41 0.213,-0.788 0.562,-0.993 l 41.299,-24.379 c 0.18,-0.105 0.381,-0.16 0.582,-0.16 0.205,0 0.415,0.055 0.595,0.166 L 0.049,-1.992 c 0.357,0.211 0.566,0.595 0.554,1.01 C 0.595,-0.568 0.365,-0.195 0,0" /></g><g
           transform="translate(393.4035,568.9431)"
           id="g132"><path
             id="path134"
             style="fill:currentColor;fill-opacity:1;fill-rule:nonzero;stroke:none"
             d="m 0,0 -20.079,11.477 c -0.357,0.204 -0.8,0.202 -1.157,-0.014 l -40.7,-25.326 c 1.707,-0.757 19.357,-11.228 19.357,-11.228 0.353,-0.203 0.792,-0.201 1.145,0.004 l 20.571,11.833 -0.074,-18.307 c 0,-0.416 0.226,-0.794 0.587,-0.997 0.177,-0.098 0.369,-0.148 0.562,-0.148 0.209,0 0.415,0.056 0.599,0.169 l 19.218,11.76 c 0.34,0.208 0.546,0.581 0.546,0.977 l 0,18.805 C 0.575,-0.585 0.353,-0.205 0,0" /></g><g
           transform="translate(426.4681,539.7249)"
           id="g136"><path
             id="path138"
             style="fill:currentColor;fill-opacity:1;fill-rule:nonzero;stroke:none"
             d="m 0,-8 c -0.579,-1.061 -1.301,-1.953 -2.175,-2.677 -0.869,-0.724 -1.858,-1.282 -2.958,-1.67 -1.099,-0.39 -2.293,-0.585 -3.581,-0.585 -1.42,0 -2.758,0.255 -4.005,0.766 -1.247,0.508 -2.355,1.247 -3.319,2.213 -0.669,0.671 -1.186,1.368 -1.551,2.092 -0.361,0.725 -0.628,1.537 -0.804,2.436 -0.172,0.898 -0.275,1.918 -0.3,3.058 -0.028,1.141 -0.04,2.476 -0.04,4.005 0,1.53 0.012,2.863 0.04,4.004 0.025,1.14 0.128,2.16 0.3,3.059 0.176,0.898 0.443,1.71 0.804,2.435 0.365,0.724 0.882,1.421 1.551,2.092 0.964,0.966 2.072,1.703 3.319,2.213 1.247,0.509 2.585,0.765 4.005,0.765 1.288,0 2.482,-0.194 3.581,-0.584 1.1,-0.388 2.089,-0.946 2.958,-1.67 C -1.301,13.228 -0.579,12.336 0,11.277 0.579,10.216 0.985,9.016 1.227,7.675 l -3.139,0 c -0.377,1.77 -1.153,3.179 -2.334,4.226 -1.182,1.046 -2.671,1.569 -4.468,1.569 -0.94,0 -1.843,-0.174 -2.716,-0.523 -0.87,-0.349 -1.617,-0.845 -2.232,-1.489 -0.456,-0.458 -0.821,-0.946 -1.088,-1.469 -0.266,-0.523 -0.471,-1.155 -0.603,-1.892 -0.135,-0.738 -0.221,-1.624 -0.262,-2.656 -0.041,-1.034 -0.062,-2.302 -0.062,-3.803 0,-1.504 0.021,-2.772 0.062,-3.804 0.041,-1.032 0.127,-1.918 0.262,-2.656 0.132,-0.739 0.337,-1.369 0.603,-1.892 0.267,-0.523 0.632,-1.013 1.088,-1.469 0.615,-0.644 1.362,-1.14 2.232,-1.489 0.873,-0.349 1.776,-0.523 2.716,-0.523 1.797,0 3.302,0.523 4.509,1.569 1.206,1.049 1.998,2.456 2.375,4.226 l 3.057,0 C 0.985,-5.741 0.579,-6.941 0,-8" /></g><g
           transform="translate(426.4681,539.7249)"
           id="g140"><path
             id="path142"
             style="fill:none;stroke:currentColor;stroke-width:1;stroke-linecap:round;stroke-linejoin:round;stroke-miterlimit:10;stroke-dasharray:none;stroke-opacity:1"
             d="m 0,-8 c -0.579,-1.061 -1.301,-1.953 -2.175,-2.677 -0.869,-0.724 -1.858,-1.282 -2.958,-1.67 -1.099,-0.39 -2.293,-0.585 -3.581,-0.585 -1.42,0 -2.758,0.255 -4.005,0.766 -1.247,0.508 -2.355,1.247 -3.319,2.213 -0.669,0.671 -1.186,1.368 -1.551,2.092 -0.361,0.725 -0.628,1.537 -0.804,2.436 -0.172,0.898 -0.275,1.918 -0.3,3.058 -0.028,1.141 -0.04,2.476 -0.04,4.005 0,1.53 0.012,2.863 0.04,4.004 0.025,1.14 0.128,2.16 0.3,3.059 0.176,0.898 0.443,1.71 0.804,2.435 0.365,0.724 0.882,1.421 1.551,2.092 0.964,0.966 2.072,1.703 3.319,2.213 1.247,0.509 2.585,0.765 4.005,0.765 1.288,0 2.482,-0.194 3.581,-0.584 1.1,-0.388 2.089,-0.946 2.958,-1.67 C -1.301,13.228 -0.579,12.336 0,11.277 0.579,10.216 0.985,9.016 1.227,7.675 l -3.139,0 c -0.377,1.77 -1.153,3.179 -2.334,4.226 -1.182,1.046 -2.671,1.569 -4.468,1.569 -0.94,0 -1.843,-0.174 -2.716,-0.523 -0.87,-0.349 -1.617,-0.845 -2.232,-1.489 -0.456,-0.458 -0.821,-0.946 -1.088,-1.469 -0.266,-0.523 -0.471,-1.155 -0.603,-1.892 -0.135,-0.738 -0.221,-1.624 -0.262,-2.656 -0.041,-1.034 -0.062,-2.302 -0.062,-3.803 0,-1.504 0.021,-2.772 0.062,-3.804 0.041,-1.032 0.127,-1.918 0.262,-2.656 0.132,-0.739 0.337,-1.369 0.603,-1.892 0.267,-0.523 0.632,-1.013 1.088,-1.469 0.615,-0.644 1.362,-1.14 2.232,-1.489 0.873,-0.349 1.776,-0.523 2.716,-0.523 1.797,0 3.302,0.523 4.509,1.569 1.206,1.049 1.998,2.456 2.375,4.226 l 3.057,0 C 0.985,-5.741 0.579,-6.941 0,-8 Z" /></g><g
           transform="translate(460.3531,553.1656)"
           id="g144"><path
             id="path146"
             style="fill:currentColor;fill-opacity:1;fill-rule:nonzero;stroke:none"
             d="m 0,-8 c -0.041,1.032 -0.127,1.912 -0.263,2.636 -0.131,0.724 -0.336,1.348 -0.603,1.871 -0.266,0.523 -0.632,1.013 -1.087,1.469 -0.615,0.644 -1.362,1.146 -2.232,1.51 -0.874,0.361 -1.776,0.543 -2.716,0.543 -0.939,0 -1.846,-0.182 -2.716,-0.543 -0.874,-0.364 -1.616,-0.866 -2.236,-1.51 -0.455,-0.456 -0.816,-0.946 -1.087,-1.469 -0.267,-0.523 -0.468,-1.147 -0.603,-1.871 -0.132,-0.724 -0.222,-1.604 -0.259,-2.636 -0.041,-1.034 -0.061,-2.302 -0.061,-3.803 0,-1.504 0.02,-2.772 0.061,-3.804 0.037,-1.031 0.127,-1.911 0.259,-2.636 0.135,-0.724 0.336,-1.348 0.603,-1.871 0.271,-0.523 0.632,-1.013 1.087,-1.468 0.62,-0.644 1.362,-1.147 2.236,-1.51 0.87,-0.361 1.777,-0.544 2.716,-0.544 0.94,0 1.842,0.183 2.716,0.544 0.87,0.363 1.617,0.866 2.232,1.51 0.455,0.455 0.821,0.945 1.087,1.468 0.267,0.523 0.472,1.147 0.603,1.871 0.136,0.725 0.222,1.605 0.263,2.636 0.041,1.032 0.062,2.3 0.062,3.804 0,1.501 -0.021,2.769 -0.062,3.803 m 3.077,-7.808 c -0.025,-1.14 -0.127,-2.16 -0.299,-3.058 -0.177,-0.899 -0.443,-1.711 -0.804,-2.435 -0.366,-0.724 -0.882,-1.422 -1.551,-2.093 -0.965,-0.966 -2.068,-1.704 -3.299,-2.213 -1.235,-0.511 -2.577,-0.765 -4.025,-0.765 -2.896,0 -5.342,0.993 -7.323,2.978 -0.673,0.671 -1.19,1.369 -1.551,2.093 -0.361,0.724 -0.632,1.536 -0.804,2.435 -0.177,0.898 -0.275,1.918 -0.304,3.058 -0.025,1.141 -0.041,2.476 -0.041,4.005 0,1.53 0.016,2.864 0.041,4.004 0.029,1.141 0.127,2.16 0.304,3.059 0.172,0.898 0.443,1.711 0.804,2.435 0.361,0.724 0.878,1.421 1.551,2.092 1.981,1.986 4.427,2.979 7.323,2.979 2.897,0 5.338,-0.993 7.324,-2.979 0.669,-0.671 1.185,-1.368 1.551,-2.092 0.361,-0.724 0.627,-1.537 0.804,-2.435 0.172,-0.899 0.274,-1.918 0.299,-3.059 0.029,-1.14 0.041,-2.474 0.041,-4.004 0,-1.529 -0.012,-2.864 -0.041,-4.005" /></g><g
           transform="translate(460.3531,553.1656)"
           id="g148"><path
             id="path150"
             style="fill:none;stroke:currentColor;stroke-width:1;stroke-linecap:round;stroke-linejoin:round;stroke-miterlimit:10;stroke-dasharray:none;stroke-opacity:1"
             d="m 0,-8 c -0.041,1.032 -0.127,1.912 -0.263,2.636 -0.131,0.724 -0.336,1.348 -0.603,1.871 -0.266,0.523 -0.632,1.013 -1.087,1.469 -0.615,0.644 -1.362,1.146 -2.232,1.51 -0.874,0.361 -1.776,0.543 -2.716,0.543 -0.939,0 -1.846,-0.182 -2.716,-0.543 -0.874,-0.364 -1.616,-0.866 -2.236,-1.51 -0.455,-0.456 -0.816,-0.946 -1.087,-1.469 -0.267,-0.523 -0.468,-1.147 -0.603,-1.871 -0.132,-0.724 -0.222,-1.604 -0.259,-2.636 -0.041,-1.034 -0.061,-2.302 -0.061,-3.803 0,-1.504 0.02,-2.772 0.061,-3.804 0.037,-1.031 0.127,-1.911 0.259,-2.636 0.135,-0.724 0.336,-1.348 0.603,-1.871 0.271,-0.523 0.632,-1.013 1.087,-1.468 0.62,-0.644 1.362,-1.147 2.236,-1.51 0.87,-0.361 1.777,-0.544 2.716,-0.544 0.94,0 1.842,0.183 2.716,0.544 0.87,0.363 1.617,0.866 2.232,1.51 0.455,0.455 0.821,0.945 1.087,1.468 0.267,0.523 0.472,1.147 0.603,1.871 0.136,0.725 0.222,1.605 0.263,2.636 0.041,1.032 0.062,2.3 0.062,3.804 0,1.501 -0.021,2.769 -0.062,3.803 z m 3.077,-7.808 c -0.025,-1.14 -0.127,-2.16 -0.299,-3.058 -0.177,-0.899 -0.443,-1.711 -0.804,-2.435 -0.366,-0.724 -0.882,-1.422 -1.551,-2.093 -0.965,-0.966 -2.068,-1.704 -3.299,-2.213 -1.235,-0.511 -2.577,-0.765 -4.025,-0.765 -2.896,0 -5.342,0.993 -7.323,2.978 -0.673,0.671 -1.19,1.369 -1.551,2.093 -0.361,0.724 -0.632,1.536 -0.804,2.435 -0.177,0.898 -0.275,1.918 -0.304,3.058 -0.025,1.141 -0.041,2.476 -0.041,4.005 0,1.53 0.016,2.864 0.041,4.004 0.029,1.141 0.127,2.16 0.304,3.059 0.172,0.898 0.443,1.711 0.804,2.435 0.361,0.724 0.878,1.421 1.551,2.092 1.981,1.986 4.427,2.979 7.323,2.979 2.897,0 5.338,-0.993 7.324,-2.979 0.669,-0.671 1.185,-1.368 1.551,-2.092 0.361,-0.724 0.627,-1.537 0.804,-2.435 0.172,-0.899 0.274,-1.918 0.299,-3.059 0.029,-1.14 0.041,-2.474 0.041,-4.004 0,-1.529 -0.012,-2.864 -0.041,-4.005 z" /></g><g
           transform="translate(495.5675,559.644)"
           id="g152"><path
             id="path154"
             style="fill:currentColor;fill-opacity:1;fill-rule:nonzero;stroke:none"
             d="m 0,-8 c -1.059,0.872 -2.433,1.309 -4.123,1.309 l -7.648,0 0,-10.503 7.648,0 c 1.69,0 3.064,0.428 4.123,1.288 1.059,0.857 1.592,2.172 1.592,3.943 0,1.77 -0.533,3.091 -1.592,3.963 m 1.629,-24.609 -6.519,12.717 -6.881,0 0,-12.717 -3.061,0 0,28.654 10.988,0 c 1.235,0 2.375,-0.18 3.421,-0.543 1.047,-0.361 1.945,-0.884 2.696,-1.57 0.751,-0.683 1.337,-1.522 1.752,-2.515 0.414,-0.993 0.623,-2.106 0.623,-3.339 0,-2.093 -0.578,-3.804 -1.731,-5.133 -1.153,-1.327 -2.654,-2.178 -4.505,-2.554 l 6.799,-13 -3.582,0 z" /></g><g
           transform="translate(495.5675,559.644)"
           id="g156"><path
             id="path158"
             style="fill:none;stroke:currentColor;stroke-width:1;stroke-linecap:round;stroke-linejoin:round;stroke-miterlimit:10;stroke-dasharray:none;stroke-opacity:1"
             d="m 0,-8 c -1.059,0.872 -2.433,1.309 -4.123,1.309 l -7.648,0 0,-10.503 7.648,0 c 1.69,0 3.064,0.428 4.123,1.288 1.059,0.857 1.592,2.172 1.592,3.943 0,1.77 -0.533,3.091 -1.592,3.963 z m 1.629,-24.609 -6.519,12.717 -6.881,0 0,-12.717 -3.061,0 0,28.654 10.988,0 c 1.235,0 2.375,-0.18 3.421,-0.543 1.047,-0.361 1.945,-0.884 2.696,-1.57 0.751,-0.683 1.337,-1.522 1.752,-2.515 0.414,-0.993 0.623,-2.106 0.623,-3.339 0,-2.093 -0.578,-3.804 -1.731,-5.133 -1.153,-1.327 -2.654,-2.178 -4.505,-2.554 l 6.799,-13 -3.582,0 z" /></g><g
           transform="translate(517.1976,535.0355)"
           id="g160"><path
             id="path162"
             style="fill:currentColor;fill-opacity:1;fill-rule:nonzero;stroke:none"
             d="m 0,-8 0,28.654 17.79,0 0,-2.737 -14.729,0 0,-10.101 12.554,0 0,-2.736 -12.554,0 0,-10.343 14.729,0 L 17.79,-8 0,-8 Z" /></g><g
           transform="translate(517.1976,535.0355)"
           id="g164"><path
             id="path166"
             style="fill:none;stroke:currentColor;stroke-width:1;stroke-linecap:round;stroke-linejoin:round;stroke-miterlimit:10;stroke-dasharray:none;stroke-opacity:1"
             d="m 0,-8 0,28.654 17.79,0 0,-2.737 -14.729,0 0,-10.101 12.554,0 0,-2.736 -12.554,0 0,-10.343 14.729,0 L 17.79,-8 0,-8 Z" /></g></g></g></g><metadata
     id="metadata4422"><rdf:RDF><cc:Work
         rdf:about=""><dc:title></dc:title><dc:format>image/svg+xml</dc:format><dc:type
           rdf:resource="http://purl.org/dc/dcmitype/StillImage" /></cc:Work></rdf:RDF></metadata></svg>
